<svg width="1920" height="200" viewBox="0 0 1920 200" fill="none" xmlns="http://www.w3.org/2000/svg">
<g filter="url(#filter0_d_70_66)">
<path fill-rule="evenodd" clip-rule="evenodd" d="M0 108.227L107.2 92.9318C212.8 77.6364 427.2 47.0454 640 58.517C852.8 69.9886 1067.2 123.523 1280 142.642C1492.8 161.761 1707.2 146.466 1812.8 138.818L1920 131.17V200H1812.8C1707.2 200 1492.8 200 1280 200C1067.2 200 852.8 200 640 200C427.2 200 212.8 200 107.2 200H0V108.227Z" fill="url(#paint0_linear_70_66)"/>
<path fill-rule="evenodd" clip-rule="evenodd" d="M0 108.227L107.2 92.9318C212.8 77.6364 427.2 47.0454 640 58.517C852.8 69.9886 1067.2 123.523 1280 142.642C1492.8 161.761 1707.2 146.466 1812.8 138.818L1920 131.17V200H1812.8C1707.2 200 1492.8 200 1280 200C1067.2 200 852.8 200 640 200C427.2 200 212.8 200 107.2 200H0V108.227Z" fill="url(#paint1_linear_70_66)"/>
</g>
<defs>
<filter id="filter0_d_70_66" x="-52" y="0" width="2080" height="304" filterUnits="userSpaceOnUse" color-interpolation-filters="sRGB">
<feFlood flood-opacity="0" result="BackgroundImageFix"/>
<feColorMatrix in="SourceAlpha" type="matrix" values="0 0 0 0 0 0 0 0 0 0 0 0 0 0 0 0 0 0 127 0" result="hardAlpha"/>
<feOffset dy="24"/>
<feGaussianBlur stdDeviation="40"/>
<feComposite in2="hardAlpha" operator="out"/>
<feColorMatrix type="matrix" values="0 0 0 0 0 0 0 0 0 0 0 0 0 0 0 0 0 0 1 0"/>
<feBlend mode="normal" in2="BackgroundImageFix" result="effect1_dropShadow_70_66"/>
<feBlend mode="normal" in="SourceGraphic" in2="effect1_dropShadow_70_66" result="shape"/>
</filter>
<linearGradient id="paint0_linear_70_66" x1="795.75" y1="56" x2="795.75" y2="193.613" gradientUnits="userSpaceOnUse">
<stop stop-color="#8BA3AF"/>
<stop offset="1" stop-color="#C7D2D4"/>
</linearGradient>
<linearGradient id="paint1_linear_70_66" x1="795.75" y1="56" x2="795.75" y2="193.613" gradientUnits="userSpaceOnUse">
<stop stop-color="#8BA3AF"/>
<stop offset="1" stop-color="#C7D2D4"/>
</linearGradient>
</defs>
</svg>
