<svg width="1920" height="256" viewBox="0 0 1920 256" fill="none" xmlns="http://www.w3.org/2000/svg">
<path fill-rule="evenodd" clip-rule="evenodd" d="M0 108.168L45 125.728C91.5 143.99 183 179.812 274.5 206.502C366 233.896 457.5 251.455 549 233.896C640.5 215.633 732 161.55 823.5 153.121C915 143.99 1005 179.812 1096.5 161.549C1188 143.99 1279.5 71.6437 1371 71.6437C1462.5 71.6437 1554 143.99 1645.5 161.549C1737 179.812 1828.5 143.99 1875 125.728L1920 108.168V0H1875C1828.5 0 1737 0 1645.5 0C1554 0 1462.5 0 1371 0C1279.5 0 1188 0 1096.5 0C1005 0 915 0 823.5 0C732 0 640.5 0 549 0C457.5 0 366 0 274.5 0C183 0 91.5 0 45 0H0V108.168Z" fill="white" fill-opacity="0.16"/>
<path fill-rule="evenodd" clip-rule="evenodd" d="M0 145.361L45 121.345C91.5 97.329 183 48.0325 274.5 80.8968C366 113.761 457.5 226.258 549 250.275C640.5 275.555 732 209.826 823.5 194.658C915 178.226 1005 209.826 1096.5 226.258C1188 242.69 1279.5 242.69 1371 209.826C1462.5 178.226 1554 113.761 1645.5 104.913C1737 97.329 1828.5 145.361 1875 169.378L1920 194.658V0H1875C1828.5 0 1737 0 1645.5 0C1554 0 1462.5 0 1371 0C1279.5 0 1188 0 1096.5 0C1005 0 915 0 823.5 0C732 0 640.5 0 549 0C457.5 0 366 0 274.5 0C183 0 91.5 0 45 0H0V145.361Z" fill="white" fill-opacity="0.1"/>
</svg>
