<svg width="24" height="19" viewBox="0 0 24 19" fill="none" xmlns="http://www.w3.org/2000/svg">
<path d="M1.98162 18.056H5.67282V9.10641L0.400024 4.65601V16.476C0.400024 17.3496 1.10882 18.056 1.98162 18.056Z" fill="#80D8FF"/>
<path d="M18.3272 18.056H22.0184C22.8912 18.056 23.6 17.3496 23.6 16.476L23.6248 4.85596L18.3272 9.10636V18.056Z" fill="#1AD2A4"/>
<path d="M18.3272 2.26264V9.10663L23.6 5.15784V3.05224C23.6 1.09944 21.368 -0.0149645 19.8032 1.15624L18.3272 2.26264Z" fill="#FFF176"/>
<path d="M5.67277 9.10649L5.25037 1.90649L12 7.00009L18.5752 2.08089L18.3272 9.10649L12 13.8449L5.67277 9.10649Z" fill="#FF8A80"/>
<path d="M0.400024 3.05224V5.15784L5.67282 9.10663V2.26264L4.19682 1.15624C2.63202 -0.0149645 0.400024 1.09944 0.400024 3.05224Z" fill="#E67C73"/>
<path d="M12.3744 7.71371C12.4816 7.79211 12.6544 7.79051 12.76 7.71211L19.5264 2.66331L21.0024 1.55691C21.4824 1.19771 22.0248 1.05531 22.5464 1.08411C21.7616 0.562511 20.6784 0.501711 19.8024 1.15691L18.3264 2.26331L12 7.00011L11.8472 7.32811L12.3744 7.71371Z" fill="white"/>
<path d="M1.60002 16.876V5.55757V3.45197C1.60002 2.00957 2.81682 1.02877 4.08322 1.08397C2.52642 0.0439696 0.400024 1.14477 0.400024 3.05197V5.15757V16.476C0.400024 17.3488 1.10882 18.056 1.98162 18.056H2.13922C1.81122 17.7664 1.60002 17.348 1.60002 16.876Z" fill="white"/>
<path d="M22.0184 18.4561H18.3272C18.1064 18.4561 17.9272 18.2769 17.9272 18.0561V10.8561C17.9272 10.6353 18.1064 10.4561 18.3272 10.4561C18.548 10.4561 18.7272 10.6353 18.7272 10.8561V17.6561H22.0184C22.6696 17.6561 23.2 17.1265 23.2 16.4761V3.05209C23.2 2.29049 22.7928 1.63289 22.112 1.29129C21.4288 0.948886 20.6552 1.01769 20.044 1.47609L12.24 7.32089C12.0976 7.42729 11.9024 7.42729 11.76 7.32089L3.9568 1.47609C3.3448 1.01929 2.5712 0.949686 1.888 1.29129C1.2072 1.63289 0.8 2.29049 0.8 3.05209V16.4761C0.8 17.1265 1.3304 17.6561 1.9816 17.6561H5.2728V10.8561C5.2728 10.6353 5.452 10.4561 5.6728 10.4561C5.8936 10.4561 6.0728 10.6353 6.0728 10.8561V18.0561C6.0728 18.2769 5.8936 18.4561 5.6728 18.4561H1.9816C0.8888 18.4561 0 17.5681 0 16.4761V3.05209C0 1.99769 0.5864 1.04889 1.5304 0.576086C2.4768 0.103286 3.5896 0.202486 4.4368 0.836086L12 6.50089L19.564 0.836086C20.4112 0.202486 21.5248 0.103286 22.4704 0.576086C23.4136 1.04889 24 1.99769 24 3.05209V16.4761C24 17.5681 23.1112 18.4561 22.0184 18.4561Z" fill="#455A64"/>
<path d="M12 14.2449C11.916 14.2449 11.8312 14.2185 11.76 14.1649L5.43278 9.42648C5.25598 9.29368 5.21998 9.04328 5.35198 8.86648C5.48478 8.69048 5.73518 8.65288 5.91198 8.78568L12 13.3449L18.0872 8.78568C18.264 8.65368 18.5152 8.68968 18.6472 8.86648C18.78 9.04328 18.7432 9.29448 18.5664 9.42648L12.24 14.1649C12.1688 14.2185 12.084 14.2449 12 14.2449Z" fill="#455A64"/>
</svg>
