<svg width="30" height="23" viewBox="0 0 30 23" fill="none" xmlns="http://www.w3.org/2000/svg">
<path d="M2.477 22.5H7.091V11.313L0.5 5.75V20.525C0.5 21.617 1.386 22.5 2.477 22.5Z" fill="#80D8FF"/>
<path d="M22.909 22.5H27.523C28.614 22.5 29.5 21.617 29.5 20.525L29.531 6L22.909 11.313V22.5Z" fill="#1AD2A4"/>
<path d="M22.909 2.7581V11.3131L29.5 6.3771V3.7451C29.5 1.3041 26.71 -0.0888962 24.754 1.3751L22.909 2.7581Z" fill="#FFF176"/>
<path d="M7.09099 11.313L6.56299 2.31299L15 8.67999L23.219 2.53099L22.909 11.313L15 17.236L7.09099 11.313Z" fill="#FF8A80"/>
<path d="M0.5 3.7451V6.3771L7.091 11.3131V2.7581L5.246 1.3751C3.29 -0.0888962 0.5 1.3041 0.5 3.7451Z" fill="#E67C73"/>
<path d="M15.468 9.57195C15.602 9.66995 15.818 9.66795 15.95 9.56995L24.408 3.25895L26.253 1.87595C26.853 1.42695 27.531 1.24895 28.183 1.28495C27.202 0.632948 25.848 0.556948 24.753 1.37595L22.908 2.75895L15 8.67995L14.809 9.08995L15.468 9.57195Z" fill="white"/>
<path d="M2 21.025V6.87695V4.24495C2 2.44195 3.521 1.21595 5.104 1.28495C3.158 -0.0150453 0.5 1.36095 0.5 3.74495V6.37695V20.525C0.5 21.616 1.386 22.5 2.477 22.5H2.674C2.264 22.138 2 21.615 2 21.025Z" fill="white"/>
<path d="M27.523 23H22.909C22.633 23 22.409 22.776 22.409 22.5V13.5C22.409 13.224 22.633 13 22.909 13C23.185 13 23.409 13.224 23.409 13.5V22H27.523C28.337 22 29 21.338 29 20.525V3.74504C29 2.79304 28.491 1.97104 27.64 1.54404C26.786 1.11604 25.819 1.20204 25.055 1.77504L15.3 9.08104C15.122 9.21404 14.878 9.21404 14.7 9.08104L4.946 1.77504C4.181 1.20404 3.214 1.11704 2.36 1.54404C1.509 1.97104 1 2.79304 1 3.74504V20.525C1 21.338 1.663 22 2.477 22H6.591V13.5C6.591 13.224 6.815 13 7.091 13C7.367 13 7.591 13.224 7.591 13.5V22.5C7.591 22.776 7.367 23 7.091 23H2.477C1.111 23 0 21.89 0 20.525V3.74504C0 2.42704 0.733 1.24104 1.913 0.650039C3.096 0.0590395 4.487 0.183039 5.546 0.975039L15 8.05604L24.455 0.975039C25.514 0.183039 26.906 0.0590395 28.088 0.650039C29.267 1.24104 30 2.42704 30 3.74504V20.525C30 21.89 28.889 23 27.523 23Z" fill="#455A64"/>
<path d="M15 17.736C14.895 17.736 14.789 17.703 14.7 17.636L6.79097 11.713C6.56997 11.547 6.52497 11.234 6.68997 11.013C6.85597 10.793 7.16898 10.746 7.38998 10.912L15 16.611L22.609 10.912C22.83 10.747 23.144 10.792 23.309 11.013C23.475 11.234 23.429 11.548 23.208 11.713L15.3 17.636C15.211 17.703 15.105 17.736 15 17.736Z" fill="#455A64"/>
</svg>
