<svg width="24" height="24" viewBox="0 0 24 24" fill="none" xmlns="http://www.w3.org/2000/svg">
<path fill-rule="evenodd" clip-rule="evenodd" d="M12 24C18.6274 24 24 18.6274 24 12C24 5.37258 18.6274 0 12 0C5.37258 0 0 5.37258 0 12C0 18.6274 5.37258 24 12 24Z" fill="#FF9A00"/>
<path fill-rule="evenodd" clip-rule="evenodd" d="M4.66684 17.2382C4.66684 16.0811 5.60498 15.1429 6.76206 15.1429C7.91914 15.1429 8.85728 16.0811 8.85728 17.2382C8.85728 18.3953 7.91914 19.3334 6.76206 19.3334C5.60498 19.3334 4.66684 18.3953 4.66684 17.2382ZM19.3334 19.3334H16.5399C16.5399 12.7863 11.2139 7.46022 4.66684 7.46022V4.66675C12.7539 4.66675 19.3334 11.2463 19.3334 19.3334ZM14.4445 19.3334H11.6511C11.6511 15.4824 8.51769 12.3495 4.66669 12.3495V9.55546C10.0582 9.55546 14.4445 13.9418 14.4445 19.3334Z" fill="white"/>
</svg>
